{
  "accessors": [
    {
      "bufferView": 0,
      "componentType": 5123,
      "count": 6120,
      "type": "SCALAR"
    },
    {
      "bufferView": 1,
      "componentType": 5126,
      "count": 3226,
      "max": [
        0.25590550899505615,
        0.501968502998352,
        0.374015748500824
      ],
      "min": [
        -0.25590550899505615,
        -0.501968502998352,
        -0.059055160731077194
      ],
      "type": "VEC3"
    },
    {
      "bufferView": 2,
      "componentType": 5126,
      "count": 3226,
      "type": "VEC3"
    },
    {
      "bufferView": 3,
      "componentType": 5126,
      "count": 3226,
      "max": [
        0.96875,
        0.9750000238418579
      ],
      "min": [
        0.09375,
        0.2749999761581421
      ],
      "type": "VEC2"
    },
    {
      "bufferView": 4,
      "componentType": 5123,
      "count": 6912,
      "type": "SCALAR"
    },
    {
      "bufferView": 5,
      "componentType": 5126,
      "count": 3678,
      "max": [
        0.29527559876441956,
        0.6102361679077148,
        0.5118110775947571
      ],
      "min": [
        -0.29527559876441956,
        -0.6102361083030701,
        -5.195501273647096e-08
      ],
      "type": "VEC3"
    },
    {
      "bufferView": 6,
      "componentType": 5126,
      "count": 3678,
      "type": "VEC3"
    },
    {
      "bufferView": 7,
      "componentType": 5126,
      "count": 3678,
      "max": [
        0.71875,
        0.9750000238418579
      ],
      "min": [
        0.09375,
        0.5249999761581421
      ],
      "type": "VEC2"
    },
    {
      "bufferView": 8,
      "componentType": 5123,
      "count": 1716,
      "type": "SCALAR"
    },
    {
      "bufferView": 9,
      "componentType": 5126,
      "count": 384,
      "max": [
        3.9370079040527344,
        3.9370079040527344,
        6.414200015569804e-07
      ],
      "min": [
        -3.9370079040527344,
        -3.9370079040527344,
        -0.15748095512390137
      ],
      "type": "VEC3"
    },
    {
      "bufferView": 10,
      "componentType": 5126,
      "count": 384,
      "type": "VEC3"
    },
    {
      "bufferView": 11,
      "componentType": 5126,
      "count": 384,
      "max": [
        0.5505080819129944,
        0.9994999766349792
      ],
      "min": [
        0.0005000000237487257,
        0.0004999637603759766
      ],
      "type": "VEC2"
    }
  ],
  "asset": {
    "generator": "Khronos glTF exporter for 3dsmax 2.00 (C)Khronos Group Inc.",
    "version": "2.0"
  },
  "bufferViews": [
    {
      "buffer": 0,
      "byteLength": 12240,
      "target": 34963
    },
    {
      "buffer": 0,
      "byteLength": 38712,
      "byteOffset": 12240,
      "target": 34962
    },
    {
      "buffer": 0,
      "byteLength": 38712,
      "byteOffset": 50952,
      "target": 34962
    },
    {
      "buffer": 0,
      "byteLength": 25808,
      "byteOffset": 89664,
      "target": 34962
    },
    {
      "buffer": 0,
      "byteLength": 13824,
      "byteOffset": 115472,
      "target": 34963
    },
    {
      "buffer": 0,
      "byteLength": 44136,
      "byteOffset": 129296,
      "target": 34962
    },
    {
      "buffer": 0,
      "byteLength": 44136,
      "byteOffset": 173432,
      "target": 34962
    },
    {
      "buffer": 0,
      "byteLength": 29424,
      "byteOffset": 217568,
      "target": 34962
    },
    {
      "buffer": 0,
      "byteLength": 3432,
      "byteOffset": 246992,
      "target": 34963
    },
    {
      "buffer": 0,
      "byteLength": 4608,
      "byteOffset": 250424,
      "target": 34962
    },
    {
      "buffer": 0,
      "byteLength": 4608,
      "byteOffset": 255032,
      "target": 34962
    },
    {
      "buffer": 0,
      "byteLength": 3072,
      "byteOffset": 259640,
      "target": 34962
    }
  ],
  "buffers": [
    {
      "byteLength": 262712,
      "uri": "cars.bin"
    }
  ],
  "images": [
    {
      "uri": "colormap.png"
    },
    {
      "uri": "Red_Brick_Wall_BaseColor.png"
    }
  ],
  "materials": [
    {
      "alphaMode": "BLEND",
      "name": "cars_mat",
      "pbrMetallicRoughness": {
        "baseColorTexture": {
          "index": 0
        },
        "metallicFactor": 0.0,
        "roughnessFactor": 0.0
      }
    },
    {
      "name": "floor_mat",
      "pbrMetallicRoughness": {
        "baseColorTexture": {
          "index": 1
        },
        "metallicFactor": 0.0,
        "roughnessFactor": 0.0
      }
    }
  ],
  "meshes": [
    {
      "name": "car",
      "primitives": [
        {
          "attributes": {
            "NORMAL": 2,
            "POSITION": 1,
            "TEXCOORD_0": 3
          },
          "indices": 0,
          "material": 0,
          "mode": 4
        }
      ]
    },
    {
      "name": "police",
      "primitives": [
        {
          "attributes": {
            "NORMAL": 6,
            "POSITION": 5,
            "TEXCOORD_0": 7
          },
          "indices": 4,
          "material": 0,
          "mode": 4
        }
      ]
    },
    {
      "name": "floor",
      "primitives": [
        {
          "attributes": {
            "NORMAL": 10,
            "POSITION": 9,
            "TEXCOORD_0": 11
          },
          "indices": 8,
          "material": 1,
          "mode": 4
        }
      ]
    }
  ],
  "nodes": [
    {
      "matrix": [
        1.0,
        0.0,
        0.0,
        0.0,
        0.0,
        0.0,
        -1.0,
        0.0,
        0.0,
        1.0,
        0.0,
        0.0,
        -1.1329896450042725,
        0.0,
        0.0,
        1.0
      ],
      "mesh": 0,
      "name": "car"
    },
    {
      "matrix": [
        1.0,
        0.0,
        0.0,
        0.0,
        0.0,
        0.0,
        -1.0,
        0.0,
        0.0,
        1.0,
        0.0,
        0.0,
        1.1944398880004883,
        0.0,
        0.0,
        1.0
      ],
      "mesh": 1,
      "name": "police"
    },
    {
      "matrix": [
        1.0,
        0.0,
        0.0,
        0.0,
        0.0,
        0.0,
        -1.0,
        0.0,
        0.0,
        1.0,
        0.0,
        0.0,
        0.0,
        -0.05547308921813965,
        0.0,
        1.0
      ],
      "mesh": 2,
      "name": "floor"
    }
  ],
  "samplers": [
    {
      "wrapS": 10497,
      "wrapT": 10497
    },
    {
      "wrapS": 10497,
      "wrapT": 10497
    }
  ],
  "scene": 0,
  "scenes": [
    {
      "nodes": [
        0,
        1,
        2
      ]
    }
  ],
  "textures": [
    {
      "sampler": 0,
      "source": 0
    },
    {
      "sampler": 1,
      "source": 1
    }
  ]
}
